<svg t="1647671884270" class="icon" viewBox="0 0 1024 1024" version="1.1" xmlns="http://www.w3.org/2000/svg" p-id="865" xmlns:xlink="http://www.w3.org/1999/xlink" width="200" height="200"><defs><style type="text/css"></style></defs><path d="M920.423 406.42v142.679l34.394 39.373-66.032 57.24-60.348-57.24 36.299-40.41V430.027C669.624 509.62 616.799 534.352 573.538 553.665c-43.272 19.314-74.438 19.216-117.355 3.215-42.915-15.993-237.491-89.763-338.93-137.796-67.697-32.056-72.054-52.37 1.16-79.57 95.547-35.915 243.755-93.426 327.464-124.812 49.558-19.84 75.755-30.665 121.241-8.042 81.218 33.18 257.078 102.075 349.354 139.766 80.334 34.688 26.327 46.096 3.951 59.993zM582.948 612.851c47.18-19.265 110.797-51.114 180.165-80.514v236.065s-89.717 94.421-247.427 94.421c-169.845 0-261.589-94.421-261.589-94.421V548.064c53.542 21.577 113.66 40.145 186.419 64.789 44.844 15.78 101.748 21.232 142.432-0.001z m0 0" fill="#EE4000" p-id="866"></path></svg>